<svg width="19" height="18" viewBox="0 0 19 18" fill="none" xmlns="http://www.w3.org/2000/svg">
<g clip-path="url(#clip0_1353_10548)">
<path d="M7.02029 0.592441C5.22181 1.21635 3.67081 2.40055 2.59509 3.9711C1.51938 5.54165 0.975656 7.41577 1.04379 9.31817C1.11192 11.2206 1.78832 13.051 2.97364 14.5406C4.15895 16.0301 5.79069 17.1004 7.6292 17.594C9.11972 17.9786 10.6813 17.9955 12.1798 17.6432C13.5373 17.3383 14.7923 16.6861 15.822 15.7504C16.8937 14.7468 17.6716 13.4701 18.072 12.0576C18.5073 10.5215 18.5847 8.9061 18.2984 7.33541H9.92842V10.8074H14.7758C14.6789 11.3612 14.4713 11.8897 14.1654 12.3614C13.8595 12.8331 13.4616 13.2382 12.9955 13.5524C12.4035 13.944 11.7363 14.2074 11.0365 14.3259C10.3347 14.4564 9.6149 14.4564 8.91311 14.3259C8.20181 14.1788 7.52893 13.8852 6.93732 13.4638C5.98691 12.7911 5.27328 11.8353 4.89826 10.7329C4.51691 9.60987 4.51691 8.39235 4.89826 7.26932C5.16521 6.48212 5.6065 5.76538 6.1892 5.1726C6.85603 4.48177 7.70026 3.98797 8.62926 3.74536C9.55826 3.50275 10.5361 3.52072 11.4556 3.79728C12.1739 4.01777 12.8307 4.40301 13.3737 4.92228C13.9203 4.37853 14.4659 3.83338 15.0106 3.28682C15.2919 2.99291 15.5984 2.71307 15.8754 2.41213C15.0466 1.64077 14.0736 1.04055 13.0123 0.645878C11.0797 -0.055855 8.96511 -0.0747134 7.02029 0.592441Z" fill="#4F4F4F"/>
<path d="M7.02053 0.592147C8.96518 -0.07546 11.0798 -0.057098 13.0126 0.644179C14.074 1.04153 15.0465 1.64464 15.8743 2.41887C15.593 2.7198 15.2963 3.00105 15.0094 3.29355C14.4638 3.83824 13.9187 4.38105 13.374 4.92199C12.8309 4.40272 12.1741 4.01748 11.4558 3.79699C10.5367 3.51945 9.55883 3.50045 8.62959 3.74207C7.70034 3.98368 6.85559 4.47658 6.18803 5.16668C5.60532 5.75946 5.16403 6.4762 4.89709 7.2634L1.98193 5.00637C3.02538 2.93716 4.83205 1.35437 7.02053 0.592147Z" fill="#E33629"/>
<path d="M1.20855 7.2418C1.36524 6.46526 1.62537 5.71324 1.98199 5.00586L4.89714 7.26852C4.51579 8.39156 4.51579 9.60907 4.89714 10.7321C3.92589 11.4821 2.95418 12.2359 1.98199 12.9934C1.08923 11.2163 0.816956 9.19157 1.20855 7.2418Z" fill="#F8BD00"/>
<path d="M9.92836 7.33398H18.2984C18.5847 8.90467 18.5072 10.5201 18.072 12.0562C17.6715 13.4687 16.8936 14.7454 15.822 15.749C14.8812 15.0149 13.9362 14.2865 12.9954 13.5524C13.4618 13.2378 13.8599 12.8323 14.1658 12.3601C14.4717 11.8879 14.6792 11.3589 14.7757 10.8046H9.92836C9.92695 9.64867 9.92836 8.49133 9.92836 7.33398Z" fill="#587DBD"/>
<path d="M1.98047 12.9937C2.95266 12.2437 3.92437 11.4899 4.89562 10.7324C5.27139 11.8352 5.98604 12.791 6.9375 13.4634C7.53095 13.8828 8.20528 14.174 8.9175 14.3184C9.6193 14.4489 10.3391 14.4489 11.0409 14.3184C11.7407 14.1999 12.4079 13.9365 12.9998 13.5449C13.9406 14.279 14.8856 15.0074 15.8264 15.7415C14.7969 16.6777 13.5418 17.3304 12.1842 17.6357C10.6857 17.988 9.12411 17.9711 7.63359 17.5865C6.45474 17.2717 5.35361 16.7169 4.39922 15.9566C3.38905 15.1546 2.564 14.1439 1.98047 12.9937Z" fill="#319F43"/>
</g>
<defs>
<clipPath id="clip0_1353_10548">
<rect width="18" height="18" fill="white" transform="translate(0.75)"/>
</clipPath>
</defs>
</svg>
