<svg width="109" height="34" viewBox="0 0 109 34" fill="none" xmlns="http://www.w3.org/2000/svg">
<path d="M16.759 13.5439L11.9722 15.8078V0.703936C13.4881 0.246443 15.0958 0 16.759 0V13.5439Z" fill="#28205E"/>
<path d="M25.1398 31.7256C24.0181 32.3824 22.8136 32.9146 21.5484 33.2948C20.3983 33.6434 19.1951 33.8689 17.957 33.958C17.5603 33.9843 17.1622 34 16.759 34C15.0958 34 13.4868 33.7536 11.9722 33.2934V21.4629L16.759 19.199V29.1406C17.1648 29.1406 17.5629 29.1209 17.957 29.0803C19.2209 28.9532 20.4293 28.6267 21.5484 28.1299C22.8925 27.5335 24.106 26.6958 25.1398 25.6694V31.7256Z" fill="#28205E"/>
<path d="M10.7574 1.1221V6.49273C9.36298 7.31334 8.14689 8.41185 7.18152 9.71354V9.71616C6.13472 11.128 5.38646 12.7783 5.02719 14.5716C4.87082 15.3581 4.78682 16.1696 4.78682 17.0007C4.78682 17.7229 4.85014 18.4334 4.97033 19.1216L0.522104 21.2243C0.372193 20.6383 0.255883 20.0393 0.169296 19.4297C0.0568628 18.6366 0 17.8252 0 17.0007C0 16.1761 0.0568628 15.3647 0.169296 14.5716C0.412256 12.857 0.904636 11.2263 1.61284 9.71616C1.84804 9.20885 2.11039 8.71728 2.3947 8.24143C3.13004 7.00135 4.01788 5.86614 5.02978 4.85808C5.69533 4.19609 6.41516 3.59047 7.18281 3.05039C8.28647 2.27042 9.48575 1.62023 10.7587 1.12473L10.7574 1.1221Z" fill="#604ED5"/>
<path d="M8.80857 26.0784C9.40822 26.6172 10.0621 27.097 10.7587 27.5086V32.8766C9.48575 32.3824 8.28647 31.7322 7.18281 30.9522C6.41645 30.4095 5.69533 29.8039 5.02978 29.1419C4.06699 28.185 3.21921 27.1101 2.50713 25.9395L6.88945 23.8683C6.9825 24.0112 7.08072 24.1501 7.18281 24.2865C7.66485 24.9393 8.21151 25.5383 8.80857 26.0784Z" fill="#604ED5"/>
<path d="M33.5193 16.9993C33.5193 17.8239 33.4612 18.6353 33.3488 19.4284C33.1071 21.143 32.6134 22.775 31.9052 24.2851C31.67 24.7911 31.4077 25.2827 31.1247 25.7599C30.388 26.9999 29.5002 28.1351 28.487 29.1419C27.8214 29.8039 27.1029 30.4095 26.3352 30.9522V24.2864C27.3807 22.8746 28.1303 21.2242 28.4896 19.4297C28.6459 18.6445 28.7287 17.833 28.7287 17.0006C28.7287 16.1682 28.6459 15.3568 28.4896 14.5716C28.1303 12.777 27.3807 11.1266 26.3352 9.71482C25.0998 8.0474 23.4533 6.71424 21.5471 5.86873C20.4293 5.37323 19.2209 5.04551 17.9557 4.91967V0.0419235C19.1951 0.131063 20.397 0.356532 21.5471 0.703912C23.2763 1.22564 24.8891 2.02396 26.3352 3.04643C27.1016 3.58913 27.8214 4.19476 28.487 4.85674C29.5002 5.86349 30.388 7.00001 31.1247 8.23878C31.4077 8.71594 31.6687 9.20752 31.9052 9.71351C32.6134 11.2236 33.1071 12.8557 33.3488 14.5703C33.4599 15.3634 33.5193 16.1748 33.5193 16.9993Z" fill="#604ED5"/>
<path d="M43.9446 20.4089C42.5657 20.4089 41.4944 20.0248 40.7293 19.258C39.9655 18.4911 39.583 17.407 39.583 16.0083V10.5355H37.492V7.86783H37.7169C38.3165 7.86783 38.7766 7.70791 39.0997 7.38937C39.4215 7.06951 39.583 6.60678 39.583 5.99853V5.04029H42.5502V7.86783H45.3597V10.5355H42.5502V15.8484C42.5502 16.2587 42.6213 16.6087 42.7634 16.8971C42.9056 17.1868 43.1305 17.407 43.438 17.5578C43.7456 17.7098 44.1385 17.7859 44.6179 17.7859C44.7226 17.7859 44.8467 17.778 44.9888 17.7636C45.131 17.7492 45.2693 17.7334 45.405 17.7177V20.2713C45.1956 20.3014 44.9552 20.3316 44.6851 20.363C44.415 20.3932 44.1682 20.4089 43.9433 20.4089H43.9446Z" fill="#604ED5"/>
<path d="M53.3411 20.5466C52.0823 20.5466 50.9774 20.2582 50.025 19.6801C49.0725 19.102 48.3346 18.3194 47.8112 17.331C47.2865 16.3426 47.0242 15.248 47.0242 14.0473C47.0242 12.8465 47.2943 11.6956 47.8332 10.7295C48.3721 9.76466 49.0997 9.00043 50.0133 8.43807C50.927 7.8757 51.9609 7.59387 53.1149 7.59387C54.0738 7.59387 54.9164 7.75379 55.644 8.07233C56.3703 8.39219 56.9893 8.83264 57.4985 9.395C58.0076 9.95736 58.3979 10.5997 58.6667 11.322C58.9368 12.0443 59.0712 12.8229 59.0712 13.6593C59.0712 13.8873 59.0596 14.1115 59.0376 14.3317C59.0156 14.552 58.973 14.7538 58.9136 14.936H49.4719V12.6328H57.2503L55.834 13.7051C55.9839 13.0064 55.958 12.3825 55.7551 11.8358C55.5522 11.2892 55.2227 10.8553 54.7665 10.5355C54.309 10.2156 53.7585 10.057 53.1136 10.057C52.4688 10.057 51.9518 10.2169 51.4724 10.5355C50.9929 10.8553 50.6298 11.3102 50.3817 11.904C50.1348 12.4965 50.0405 13.2188 50.1012 14.0696C50.0418 14.8299 50.1426 15.5023 50.4049 16.087C50.6673 16.6729 51.0562 17.1252 51.5745 17.4437C52.0914 17.7636 52.6872 17.9222 53.3617 17.9222C54.0363 17.9222 54.6088 17.778 55.0818 17.4896C55.5535 17.2012 55.9244 16.8132 56.1945 16.3269L58.5775 17.5132C58.3372 18.1057 57.9624 18.6301 57.4532 19.0863C56.9441 19.5424 56.3367 19.9003 55.6324 20.1585C54.928 20.4168 54.163 20.5466 53.3398 20.5466H53.3411Z" fill="#604ED5"/>
<path d="M61.2759 20.2726V3.01107H64.2431V20.2726H61.2759Z" fill="#604ED5"/>
<path d="M72.6509 20.5466C71.4671 20.5466 70.4061 20.2621 69.4705 19.6919C68.5335 19.1216 67.7956 18.343 67.2567 17.3546C66.7178 16.3662 66.4477 15.2716 66.4477 14.0709C66.4477 12.8701 66.7204 11.7598 67.2684 10.7871C67.815 9.81447 68.5529 9.03975 69.4821 8.46166C70.4113 7.88356 71.4606 7.59517 72.6289 7.59517C73.5581 7.59517 74.3852 7.78132 75.1127 8.1536C75.839 8.52589 76.4128 9.0463 76.8328 9.71616L76.3831 10.3323V3.01107H79.3283V20.2726H76.5408V17.8789L76.8561 18.4715C76.4361 19.1557 75.852 19.6722 75.1024 20.0222C74.3529 20.3722 73.5361 20.5466 72.6522 20.5466H72.6509ZM72.9649 17.8095C73.624 17.8095 74.212 17.6495 74.7302 17.331C75.2472 17.0125 75.6516 16.5707 75.9437 16.0083C76.2358 15.446 76.3818 14.7997 76.3818 14.0696C76.3818 13.3394 76.2358 12.7167 75.9437 12.1544C75.6516 11.592 75.2472 11.1516 74.7302 10.8317C74.2133 10.5119 73.6253 10.3532 72.9649 10.3532C72.3045 10.3532 71.7139 10.5132 71.1893 10.8317C70.6646 11.1502 70.2562 11.592 69.9641 12.1544C69.6721 12.7167 69.526 13.3551 69.526 14.0696C69.526 14.784 69.6721 15.446 69.9641 16.0083C70.2562 16.5707 70.6646 17.0111 71.1893 17.331C71.7139 17.6508 72.3058 17.8095 72.9649 17.8095Z" fill="#604ED5"/>
<path d="M82.0473 20.2726V7.86783H84.8349V10.6272L84.61 10.2169C84.8944 9.29012 85.3402 8.64386 85.9476 8.27813C86.555 7.91371 87.2852 7.73019 88.1394 7.73019H88.8592V10.3978H87.8021C86.9621 10.3978 86.2888 10.656 85.7783 11.1738C85.2691 11.6903 85.0145 12.4205 85.0145 13.363V20.2726H82.0473Z" fill="#604ED5"/>
<path d="M90.4538 6.477V3.28503H93.421V6.477H90.4538ZM90.4538 20.2726V7.86783H93.421V20.2726H90.4538Z" fill="#604ED5"/>
<path d="M96.1194 24.8331V7.86784H98.907V10.331L98.6369 9.71485C99.0569 9.04631 99.6255 8.52589 100.345 8.1523C101.065 7.78001 101.896 7.59387 102.841 7.59387C103.995 7.59387 105.036 7.88226 105.966 8.46035C106.895 9.03844 107.633 9.81317 108.179 10.7858C108.726 11.7585 109 12.8531 109 14.0696C109 15.286 108.73 16.3649 108.191 17.3533C107.652 18.3417 106.917 19.1203 105.988 19.6906C105.058 20.2608 104.001 20.5452 102.818 20.5452C101.934 20.5452 101.121 20.3709 100.379 20.0209C99.6371 19.6709 99.0491 19.1544 98.6136 18.4701L99.0853 17.8776V24.8318H96.1181L96.1194 24.8331ZM102.482 17.8095C103.156 17.8095 103.752 17.6495 104.269 17.331C104.786 17.0125 105.194 16.5707 105.494 16.0083C105.794 15.446 105.944 14.7997 105.944 14.0696C105.944 13.3394 105.794 12.7167 105.494 12.1544C105.194 11.592 104.786 11.1516 104.269 10.8317C103.752 10.5119 103.156 10.3532 102.482 10.3532C101.807 10.3532 101.256 10.5132 100.739 10.8317C100.223 11.1503 99.8181 11.592 99.526 12.1544C99.2339 12.7167 99.0879 13.3551 99.0879 14.0696C99.0879 14.784 99.2339 15.446 99.526 16.0083C99.8181 16.5707 100.223 17.0111 100.739 17.331C101.256 17.6509 101.837 17.8095 102.482 17.8095Z" fill="#604ED5"/>
<path d="M40.8211 31.318C40.2693 31.318 39.7833 31.1882 39.3633 30.9299C38.9433 30.6717 38.6099 30.3178 38.3657 29.8708C38.1214 29.4238 37.9986 28.9204 37.9986 28.3606C37.9986 27.8009 38.1188 27.291 38.3605 26.8505C38.6021 26.4101 38.9343 26.0601 39.3582 25.8018C39.7821 25.5436 40.2693 25.4138 40.8211 25.4138C41.1868 25.4138 41.528 25.4807 41.8446 25.6131C42.1612 25.7455 42.4404 25.9264 42.6821 26.1531C42.9237 26.3799 43.0995 26.6408 43.2093 26.9344L42.3512 27.3644C42.2207 27.0642 42.0204 26.823 41.7516 26.6408C41.4828 26.4586 41.1726 26.3681 40.8211 26.3681C40.4696 26.3681 40.1788 26.4533 39.9061 26.6251C39.6334 26.7968 39.4189 27.034 39.2599 27.3382C39.101 27.6423 39.0222 27.987 39.0222 28.3711C39.0222 28.7552 39.101 29.0895 39.2599 29.3936C39.4189 29.6977 39.6334 29.9376 39.9061 30.112C40.1788 30.2863 40.4838 30.3741 40.8211 30.3741C41.1584 30.3741 41.4815 30.2811 41.7464 30.0962C42.0113 29.9114 42.2129 29.665 42.3512 29.3569L43.2093 29.7974C43.0995 30.091 42.9237 30.3519 42.6821 30.5786C42.4404 30.8054 42.1612 30.9863 41.8446 31.1187C41.528 31.2511 41.1868 31.318 40.8211 31.318Z" fill="#28205E"/>
<path d="M48.3477 31.318C47.8165 31.318 47.3345 31.1908 46.9002 30.9352C46.466 30.6796 46.1197 30.3283 45.8612 29.8813C45.6027 29.4342 45.4735 28.9269 45.4735 28.3606C45.4735 27.7944 45.6014 27.291 45.856 26.8505C46.1106 26.4101 46.4557 26.0601 46.8899 25.8018C47.3241 25.5436 47.81 25.4138 48.3477 25.4138C48.8853 25.4138 49.3815 25.541 49.8158 25.7966C50.25 26.0522 50.5925 26.3996 50.8445 26.84C51.0965 27.2805 51.2218 27.7878 51.2218 28.3606C51.2218 28.9335 51.0913 29.4421 50.8289 29.8865C50.5666 30.3309 50.2203 30.6796 49.7899 30.9352C49.3596 31.1908 48.8788 31.318 48.3477 31.318ZM48.3477 30.3741C48.6992 30.3741 49.0145 30.2863 49.2937 30.112C49.5728 29.9376 49.7938 29.6964 49.9553 29.3884C50.1169 29.0803 50.1983 28.7382 50.1983 28.3606C50.1983 27.9831 50.1169 27.6436 49.9553 27.3434C49.7938 27.0432 49.5728 26.8046 49.2937 26.6303C49.0145 26.456 48.6992 26.3681 48.3477 26.3681C47.9961 26.3681 47.6912 26.456 47.412 26.6303C47.1329 26.8046 46.9106 27.0432 46.7452 27.3434C46.5797 27.6436 46.497 27.9831 46.497 28.3606C46.497 28.7382 46.5797 29.0803 46.7452 29.3884C46.9106 29.6964 47.1329 29.9376 47.412 30.112C47.6912 30.2863 48.0026 30.3741 48.3477 30.3741Z" fill="#28205E"/>
<path d="M53.7031 31.1921V25.5397H54.6543V26.6408L54.4992 26.5464C54.6375 26.1898 54.8597 25.9119 55.166 25.7127C55.4723 25.5134 55.8329 25.4138 56.2464 25.4138C56.66 25.4138 57.0024 25.5043 57.3165 25.6865C57.6305 25.8687 57.8786 26.1204 58.0609 26.4415C58.2431 26.7627 58.3348 27.1271 58.3348 27.5322V31.1921H57.363V27.8468C57.363 27.5322 57.3074 27.2661 57.1976 27.0498C57.0877 26.8335 56.9301 26.6657 56.7272 26.5464C56.5243 26.4271 56.2917 26.3681 56.0293 26.3681C55.767 26.3681 55.5343 26.4271 55.3315 26.5464C55.1286 26.6657 54.9683 26.8348 54.8507 27.055C54.7331 27.2752 54.6749 27.5387 54.6749 27.8468V31.1921H53.7031Z" fill="#28205E"/>
<path d="M60.9402 31.1921V25.5397H61.8914V26.6408L61.7363 26.5464C61.8746 26.1898 62.0968 25.9119 62.4031 25.7127C62.7094 25.5134 63.07 25.4138 63.4835 25.4138C63.8971 25.4138 64.2395 25.5043 64.5536 25.6865C64.8676 25.8687 65.1157 26.1204 65.298 26.4415C65.4802 26.7627 65.5719 27.1271 65.5719 27.5322V31.1921H64.6001V27.8468C64.6001 27.5322 64.5445 27.2661 64.4347 27.0498C64.3248 26.8335 64.1672 26.6657 63.9643 26.5464C63.7614 26.4271 63.5287 26.3681 63.2664 26.3681C63.0041 26.3681 62.7714 26.4271 62.5685 26.5464C62.3656 26.6657 62.2054 26.8348 62.0878 27.055C61.9702 27.2752 61.912 27.5387 61.912 27.8468V31.1921H60.9402Z" fill="#28205E"/>
<path d="M70.7516 31.318C70.214 31.318 69.7333 31.1882 69.3094 30.9299C68.8855 30.6717 68.5534 30.3165 68.3117 29.8655C68.07 29.4146 67.9498 28.9099 67.9498 28.3502C67.9498 27.7904 68.07 27.2805 68.3117 26.84C68.5534 26.3996 68.8764 26.0522 69.2835 25.7966C69.6906 25.541 70.152 25.4138 70.6689 25.4138C71.0825 25.4138 71.4495 25.4885 71.77 25.6393C72.0905 25.79 72.3632 25.9919 72.5867 26.2475C72.8103 26.5031 72.9835 26.7928 73.1037 27.1179C73.2239 27.443 73.2846 27.7799 73.2846 28.1299C73.2846 28.2138 73.2794 28.3017 73.2691 28.3921C73.2588 28.4826 73.2471 28.5743 73.2329 28.6648H68.6632V27.8153H72.6746L72.2094 28.1929C72.2779 27.8297 72.2469 27.5047 72.1163 27.2176C71.9858 26.9305 71.7919 26.7037 71.5374 26.5359C71.2828 26.3681 70.9933 26.2842 70.6689 26.2842C70.3445 26.2842 70.0486 26.3694 69.7798 26.5412C69.511 26.7129 69.3029 26.9515 69.1543 27.2595C69.0057 27.5676 68.9462 27.9346 68.9734 28.3606C68.9462 28.7736 69.0096 29.1354 69.1646 29.446C69.3197 29.7567 69.5407 29.9979 69.8263 30.1696C70.1119 30.3414 70.4247 30.4266 70.762 30.4266C71.1341 30.4266 71.4482 30.3387 71.7028 30.1644C71.9574 29.9901 72.1641 29.7659 72.3231 29.4932L73.1295 29.9127C73.0197 30.171 72.8491 30.4069 72.6178 30.6206C72.3864 30.8343 72.1124 31.0034 71.7958 31.1292C71.4792 31.255 71.1303 31.318 70.7516 31.318Z" fill="#28205E"/>
<path d="M78.3609 31.318C77.8091 31.318 77.3232 31.1882 76.9031 30.9299C76.4831 30.6717 76.1497 30.3178 75.9055 29.8708C75.6612 29.4238 75.5384 28.9204 75.5384 28.3606C75.5384 27.8009 75.6586 27.291 75.9003 26.8505C76.142 26.4101 76.4741 26.0601 76.898 25.8018C77.3219 25.5436 77.8091 25.4138 78.3609 25.4138C78.7266 25.4138 79.0678 25.4807 79.3844 25.6131C79.701 25.7455 79.9802 25.9264 80.2219 26.1531C80.4635 26.3799 80.6393 26.6408 80.7491 26.9344L79.891 27.3644C79.7605 27.0642 79.5602 26.823 79.2914 26.6408C79.0226 26.4586 78.7124 26.3681 78.3609 26.3681C78.0094 26.3681 77.7186 26.4533 77.4459 26.6251C77.1732 26.7968 76.9587 27.034 76.7998 27.3382C76.6408 27.6423 76.562 27.987 76.562 28.3711C76.562 28.7552 76.6408 29.0895 76.7998 29.3936C76.9587 29.6977 77.1732 29.9376 77.4459 30.112C77.7186 30.2863 78.0236 30.3741 78.3609 30.3741C78.6982 30.3741 79.0213 30.2811 79.2862 30.0962C79.5511 29.9114 79.7528 29.665 79.891 29.3569L80.7491 29.7974C80.6393 30.091 80.4635 30.3519 80.2219 30.5786C79.9802 30.8054 79.701 30.9863 79.3844 31.1187C79.0678 31.2511 78.7266 31.318 78.3609 31.318Z" fill="#28205E"/>
<path d="M85.5153 31.255C84.9712 31.255 84.5499 31.0977 84.254 30.7831C83.958 30.4685 83.8094 30.0241 83.8094 29.4513V26.473H82.8065V25.5397H83.0133C83.2614 25.5397 83.4566 25.4623 83.5975 25.3089C83.7383 25.1556 83.8094 24.9524 83.8094 24.7007V24.2393H84.7812V25.5397H86.0322V26.473H84.7812V29.4198C84.7812 29.6086 84.811 29.7725 84.8691 29.9127C84.9273 30.053 85.0255 30.1631 85.1638 30.2431C85.302 30.323 85.4843 30.3637 85.7117 30.3637C85.7595 30.3637 85.8203 30.3597 85.8926 30.3532C85.965 30.3466 86.0322 30.3387 86.0942 30.3322V31.1921C86.0051 31.2131 85.9043 31.2288 85.7944 31.2393C85.6846 31.2498 85.5915 31.255 85.5153 31.255Z" fill="#28205E"/>
<path d="M89.4659 31.1921C90.2232 31.1921 90.8371 30.5694 90.8371 29.8013C90.8371 29.0332 90.2232 28.4105 89.4659 28.4105C88.7086 28.4105 88.0947 29.0332 88.0947 29.8013C88.0947 30.5694 88.7086 31.1921 89.4659 31.1921Z" fill="#604ED5"/>
<path d="M93.5937 31.1921C94.351 31.1921 94.9649 30.5694 94.9649 29.8013C94.9649 29.0332 94.351 28.4105 93.5937 28.4105C92.8364 28.4105 92.2225 29.0332 92.2225 29.8013C92.2225 30.5694 92.8364 31.1921 93.5937 31.1921Z" fill="#604ED5"/>
<path d="M97.7227 31.1921C98.48 31.1921 99.0939 30.5694 99.0939 29.8013C99.0939 29.0332 98.48 28.4105 97.7227 28.4105C96.9655 28.4105 96.3516 29.0332 96.3516 29.8013C96.3516 30.5694 96.9655 31.1921 97.7227 31.1921Z" fill="#604ED5"/>
</svg>
