<svg xmlns="http://www.w3.org/2000/svg" width="19" height="18" viewBox="0 0 19 18" fill="none">
  <g clip-path="url(#clip0_1071_20285)">
    <path d="M7.02029 0.591952C5.22181 1.21586 3.67081 2.40006 2.59509 3.97061C1.51938 5.54116 0.975656 7.41528 1.04379 9.31769C1.11192 11.2201 1.78832 13.0505 2.97364 14.5401C4.15895 16.0297 5.79069 17.0999 7.6292 17.5935C9.11972 17.9781 10.6813 17.995 12.1798 17.6427C13.5373 17.3378 14.7923 16.6856 15.822 15.7499C16.8937 14.7463 17.6716 13.4697 18.072 12.0571C18.5073 10.521 18.5847 8.90561 18.2984 7.33492H9.92842V10.807H14.7758C14.6789 11.3607 14.4713 11.8892 14.1654 12.3609C13.8595 12.8326 13.4616 13.2377 12.9955 13.552C12.4035 13.9435 11.7363 14.2069 11.0365 14.3254C10.3347 14.4559 9.6149 14.4559 8.91311 14.3254C8.20181 14.1783 7.52893 13.8848 6.93732 13.4634C5.98691 12.7906 5.27328 11.8348 4.89826 10.7324C4.51691 9.60938 4.51691 8.39187 4.89826 7.26883C5.16521 6.48163 5.6065 5.76489 6.1892 5.17211C6.85603 4.48128 7.70026 3.98748 8.62926 3.74487C9.55826 3.50226 10.5361 3.52023 11.4556 3.7968C12.1739 4.01728 12.8307 4.40252 13.3737 4.9218C13.9203 4.37805 14.4659 3.83289 15.0106 3.28633C15.2919 2.99242 15.5984 2.71258 15.8754 2.41164C15.0466 1.64028 14.0736 1.04006 13.0123 0.64539C11.0797 -0.0563432 8.96511 -0.0752016 7.02029 0.591952Z" fill="#4F4F4F"/>
    <path d="M7.02004 0.592147C8.96469 -0.07546 11.0793 -0.057098 13.0121 0.644179C14.0735 1.04153 15.046 1.64464 15.8738 2.41887C15.5925 2.7198 15.2958 3.00105 15.0089 3.29355C14.4633 3.83824 13.9182 4.38105 13.3735 4.92199C12.8304 4.40272 12.1736 4.01748 11.4554 3.79699C10.5362 3.51945 9.55835 3.50045 8.6291 3.74207C7.69985 3.98368 6.8551 4.47658 6.18754 5.16668C5.60484 5.75946 5.16354 6.4762 4.8966 7.2634L1.98145 5.00637C3.02489 2.93716 4.83156 1.35437 7.02004 0.592147Z" fill="#E33629"/>
    <path d="M1.20855 7.24229C1.36524 6.46575 1.62537 5.71373 1.98199 5.00635L4.89714 7.269C4.51579 8.39204 4.51579 9.60956 4.89714 10.7326C3.92589 11.4826 2.95418 12.2363 1.98199 12.9938C1.08923 11.2168 0.816956 9.19205 1.20855 7.24229Z" fill="#F8BD00"/>
    <path d="M9.92836 7.3335H18.2984C18.5847 8.90418 18.5072 10.5196 18.072 12.0557C17.6715 13.4682 16.8936 14.7449 15.822 15.7485C14.8812 15.0144 13.9362 14.286 12.9954 13.5519C13.4618 13.2373 13.8599 12.8318 14.1658 12.3596C14.4717 11.8875 14.6792 11.3584 14.7757 10.8041H9.92836C9.92695 9.64818 9.92836 8.49084 9.92836 7.3335Z" fill="#587DBD"/>
    <path d="M1.98047 12.9937C2.95266 12.2437 3.92437 11.4899 4.89562 10.7324C5.27139 11.8352 5.98604 12.791 6.9375 13.4634C7.53095 13.8828 8.20528 14.174 8.9175 14.3184C9.6193 14.4489 10.3391 14.4489 11.0409 14.3184C11.7407 14.1999 12.4079 13.9365 12.9998 13.5449C13.9406 14.279 14.8856 15.0074 15.8264 15.7415C14.7969 16.6777 13.5418 17.3304 12.1842 17.6357C10.6857 17.988 9.12411 17.9711 7.63359 17.5865C6.45474 17.2717 5.35361 16.7169 4.39922 15.9566C3.38905 15.1546 2.564 14.1439 1.98047 12.9937Z" fill="#319F43"/>
  </g>
  <defs>
    <clipPath id="clip0_1071_20285">
      <rect width="18" height="18" fill="white" transform="translate(0.75)"/>
    </clipPath>
  </defs>
</svg>